<svg xmlns="http://www.w3.org/2000/svg" width="980" height="560" viewBox="0 0 980 560">
  <defs>
    <style>
      .bg{fill:#fbfcfe}
      .grid{stroke:#e6e8ef;stroke-width:1}
      .axis{stroke:#9aa3b2;stroke-width:1.4}
      .price{fill:none;stroke:#1f2937;stroke-width:4;stroke-linecap:round;stroke-linejoin:round}
      .green{stroke:#0f9f6e;fill:none}
      .red{stroke:#d64545;fill:none}
      .greenFill{fill:#dff7eb;stroke:#0f9f6e}
      .redFill{fill:#fde5e5;stroke:#d64545}
      .blueFill{fill:#e8f1ff;stroke:#2563eb}
      .yellowFill{fill:#fff4c7;stroke:#d99a00}
      .label{font-family:Arial, sans-serif;font-size:20px;fill:#111827}
      .small{font-family:Arial, sans-serif;font-size:16px;fill:#374151}
      .tiny{font-family:Arial, sans-serif;font-size:13px;fill:#4b5563}
      .muted{font-family:Arial, sans-serif;font-size:14px;fill:#6b7280}
      .arrow{stroke:#111827;stroke-width:2.2;fill:none;marker-end:url(#arrow)}
      .dash{stroke-dasharray:8 7}
    </style>
    <marker id="arrow" markerWidth="10" markerHeight="10" refX="8" refY="3" orient="auto" markerUnits="strokeWidth">
      <path d="M0,0 L0,6 L9,3 z" fill="#111827"/>
    </marker>
  </defs>
  <rect class="bg" x="0" y="0" width="980" height="560" rx="18"/>
  <text class="label" x="34" y="42">Buy Entry: PA Rejection + Clear Wick</text>
  <line class="grid" x1="60" x2="935" y1="100" y2="100"/>
<line class="grid" x1="60" x2="935" y1="150" y2="150"/>
<line class="grid" x1="60" x2="935" y1="200" y2="200"/>
<line class="grid" x1="60" x2="935" y1="250" y2="250"/>
<line class="grid" x1="60" x2="935" y1="300" y2="300"/>
<line class="grid" x1="60" x2="935" y1="350" y2="350"/>
<line class="grid" x1="60" x2="935" y1="400" y2="400"/>
<line class="grid" x1="60" x2="935" y1="450" y2="450"/>
  <line class="grid" x1="80" x2="80" y1="80" y2="505"/>
<line class="grid" x1="180" x2="180" y1="80" y2="505"/>
<line class="grid" x1="280" x2="280" y1="80" y2="505"/>
<line class="grid" x1="380" x2="380" y1="80" y2="505"/>
<line class="grid" x1="480" x2="480" y1="80" y2="505"/>
<line class="grid" x1="580" x2="580" y1="80" y2="505"/>
<line class="grid" x1="680" x2="680" y1="80" y2="505"/>
<line class="grid" x1="780" x2="780" y1="80" y2="505"/>
<line class="grid" x1="880" x2="880" y1="80" y2="505"/>
  <line class="axis" x1="60" y1="505" x2="935" y2="505"/>
  <line class="axis" x1="60" y1="80" x2="60" y2="505"/>
  
  <rect class="greenFill" x="480" y="180" width="46" height="205" rx="5"/>
  <line class="green" x1="503" y1="145" x2="503" y2="420" stroke-width="4"/>
  <rect class="redFill" x="150" y="210" width="36" height="90"/><line class="red" x1="168" y1="185" x2="168" y2="325" stroke-width="3"/>
  <rect class="redFill" x="220" y="250" width="36" height="95"/><line class="red" x1="238" y1="220" x2="238" y2="370" stroke-width="3"/>
  <rect class="redFill" x="290" y="300" width="36" height="105"/><line class="red" x1="308" y1="270" x2="308" y2="430" stroke-width="3"/>
  <rect class="greenFill" x="610" y="300" width="40" height="70"/><line class="green" x1="630" y1="265" x2="630" y2="445" stroke-width="3"/>
  <polyline class="green price" points="650,315 730,245 820,195"/>
  <line class="red dash" x1="615" y1="445" x2="790" y2="445"/>
  <line class="green dash" x1="615" y1="365" x2="790" y2="365"/>
  <line class="blueFill" x1="615" y1="220" x2="850" y2="220"/>
  <text class="small" x="395" y="160">Rejection candle wins over sellers</text>
  <text class="small" x="665" y="466">SL below wick</text>
  <text class="small" x="665" y="360">Buy on wick clear</text>
  <text class="small" x="690" y="210">TP toward next liquidity</text>
  <path class="arrow" d="M590,375 C610,410 625,435 630,445"/>

</svg>